File Name

Piranha 1978 1080p BRRip H264.mp4

File Size
Format : MPEG-4
Format profile : Base Media
Codec ID : isom
File size : 3.71 GiB
Duration : 1h 33mn
Overall bit rate : 5 660 Kbps

Video
ID : 1
Format : AVC
Format/Info : Advanced Video Codec
Format profile : High@L4.1
Format settings, CABAC : Yes
Format settings, ReFrames : 3 frames
Codec ID : avc1
Codec ID/Info : Advanced Video Coding
Duration : 1h 33mn
Bit rate mode : Variable
Bit rate : 5 399 Kbps
Maximum bit rate : 17.9 Mbps
Width : 1 920 pixels
Height : 1 080 pixels
Display aspect ratio : 16:9
Frame rate mode : Constant
Frame rate : 23.976 fps
Resolution : 24 bits
Colorimetry : 4:2:0
Scan type : Progressive
Bits/(Pixel*Frame) : 0.109
Stream size : 3.54 GiB (95%)

Audio 
ID : 2
Format : AAC
Format/Info : Advanced Audio Codec
Format version : Version 4
Format profile : LC
Format settings, SBR : No
Codec ID : 40
Duration : 1h 33mn
Bit rate mode : Variable
Bit rate : 256 Kbps
Maximum bit rate : 262 Kbps
Channel(s) : 2 channels
Channel positions : L R
Sampling rate : 48.0 KHz
Resolution : 16 bits
Stream size : 172 MiB (5%)

English SRT : External

Language : English



 
http://www.imdb.com/title/tt0078087/

Release Date: 3 August 1978 (USA) 

Genre: Comedy | Horror | Sci-Fi 

Plot: When flesh-eating piranhas are accidently released into a summer resort's rivers, the guests become their next meal.

Cast: 
Bradford Dillman ... Paul Grogan
Heather Menzies ... Maggie McKeown
Kevin McCarthy ... Dr. Robert Hoak
Keenan Wynn ... Jack
Dick Miller ... Buck Gardner
Barbara Steele ... Dr. Mengers
Belinda Balaski ... Betsy
Melody Thomas Scott ... Laura Dickinson (as Melody Thomas)
Bruce Gordon ... Colonel Waxman
Barry Brown ... Trooper
Paul Bartel ... Mr. Dumont
Shannon Collins ... Suzie Grogan
Shawn Nelson ... Whitney
Richard Deacon ... Earl Lyon
Janie Squire ... Barbara Randolph